<?xml version="1.0" encoding="UTF-8"?>
<svg xmlns="http://www.w3.org/2000/svg" viewBox="0 0 232.32 289.35">
  <defs>
    <style>
      .cls-1 {
        fill: #010101;
      }

      .cls-2 {
        mix-blend-mode: multiply;
        opacity: .75;
      }

      .cls-3 {
        isolation: isolate;
      }

      .cls-4 {
        fill: #fff;
      }

      .cls-5 {
        fill: #eb2627;
      }
    </style>
  </defs>
  <g class="cls-3">
    <g id="Layer_1" data-name="Layer 1">
      <g>
        <rect class="cls-5" width="232.32" height="289.35"/>
        <g>
          <g class="cls-2">
            <path class="cls-1" d="M203.94,172.25c-7.5,0-13.99,3.25-17.91,9.52v-9.18h-5.38v6.69c-3.03-3.31-7.42-5.21-12.91-5.21-7.93,0-13.9,3.91-17.2,9.68-2.57-6.08-7.93-9.68-15.65-9.68-6.46,0-11.82,2.59-15.14,7.26l-.02-180.57h-5.15l.02,174.34v8.2c-3.81-6.59-11.53-10.71-20.08-10.71s-15.24,3.88-19.66,9.96v-7.4h-4.95v9.89c-3.7-6.7-11.74-10.92-20.38-10.92-13.9,0-24.61,11.12-24.61,25.23s10.71,25.34,24.61,25.34c8.54,0,16.37-4.12,20.18-10.61v6.59c0,12.05-7.52,18.95-18.74,18.95-7.72,0-14.52-3.3-19.57-8.34l-3.19,3.5c5.25,5.77,13.49,9.68,22.86,9.68,14.01,0,23.79-9.06,23.79-23.99v-6.19c4.47,6.15,11.53,10.12,19.66,10.12s16.3-4.1,20.08-10.8v11.25h5.15v-31c0-8.65,5.87-14.93,14.42-14.93s13.28,5.97,13.28,14.93v31h5.15v-31.82c0-7.72,6.08-14.11,14.42-14.11s13.18,5.97,13.18,14.93v31l6.11.03-.05-30c0-10.86,9.07-17.35,18.36-17.35h2.8v-4.93c-.56,0-2.02-.34-3.47-.34ZM50.24,219.84c-11.53,0-19.98-8.96-19.98-20.39s8.45-20.39,19.98-20.39c9.99,0,19.46,6.59,19.46,20.29s-9.27,20.49-19.46,20.49ZM95.04,219.54c-11.43,0-19.88-9.27-19.88-21.11s8.45-21.01,19.88-21.01c10.29,0,19.56,6.8,19.56,21.11s-9.27,21.01-19.56,21.01Z"/>
          </g>
          <path class="cls-4" d="M203.94,171.5c-7.5,0-13.99,3.25-17.91,9.52v-9.18h-5.38v6.69c-3.03-3.31-7.42-5.21-12.91-5.21-7.93,0-13.9,3.91-17.2,9.68-2.57-6.08-7.93-9.68-15.65-9.68-6.46,0-11.82,2.59-15.14,7.26l-.02-180.57h-5.15l.02,174.34v8.2c-3.81-6.59-11.53-10.71-20.08-10.71s-15.24,3.88-19.66,9.96v-7.4h-4.95v9.89c-3.7-6.7-11.74-10.92-20.38-10.92-13.9,0-24.61,11.12-24.61,25.23s10.71,25.34,24.61,25.34c8.54,0,16.37-4.12,20.18-10.61v6.59c0,12.05-7.52,18.95-18.74,18.95-7.72,0-14.52-3.3-19.57-8.34l-3.19,3.5c5.25,5.77,13.49,9.68,22.86,9.68,14.01,0,23.79-9.06,23.79-23.99v-6.19c4.47,6.15,11.53,10.12,19.66,10.12s16.3-4.1,20.08-10.8v11.25h5.15v-31c0-8.65,5.87-14.93,14.42-14.93s13.28,5.97,13.28,14.93v31h5.15v-31.82c0-7.72,6.08-14.11,14.42-14.11s13.18,5.97,13.18,14.93v31l6.11.03-.05-30c0-10.86,9.07-17.35,18.36-17.35h2.8v-4.93c-.56,0-2.02-.34-3.47-.34ZM50.24,219.09c-11.53,0-19.98-8.96-19.98-20.39s8.45-20.39,19.98-20.39c9.99,0,19.46,6.59,19.46,20.29s-9.27,20.49-19.46,20.49ZM95.04,218.79c-11.43,0-19.88-9.27-19.88-21.11s8.45-21.01,19.88-21.01c10.29,0,19.56,6.8,19.56,21.11s-9.27,21.01-19.56,21.01Z"/>
        </g>
      </g>
    </g>
  </g>
</svg>